<svg width="79" height="40" viewBox="0 0 79 40" fill="none" xmlns="http://www.w3.org/2000/svg">
<path fill-rule="evenodd" clip-rule="evenodd" d="M76.0801 17.796C75.93 16.7528 75.8674 15.8075 75.5338 14.8685C74.975 13.2946 74.1222 11.8757 73.4285 10.3754C73.2763 10.0462 72.9934 9.77951 72.8085 9.46141C72.4436 8.83354 71.6402 8.55711 71.4692 7.76949C71.4463 7.66531 71.2815 7.55487 71.1606 7.51459C70.5052 7.29581 70.1306 6.75892 69.7142 6.27135C69.3785 5.87685 69.0213 5.5268 68.4875 5.41914C68.3547 5.39275 68.2101 5.36219 68.1017 5.28787C67.7229 5.03158 67.2934 4.81002 67.0036 4.47247C66.6428 4.05158 65.9909 4.32523 65.7066 3.82863C64.7266 3.43621 63.8237 2.83056 62.7214 2.775C62.4941 2.76389 62.2682 2.68471 62.0451 2.62428C60.8795 2.31104 59.6889 2.17977 58.4886 2.25131C57.2584 2.32493 56.0108 2.36661 54.8104 2.61525C53.6518 2.85487 52.4675 3.06949 51.3853 3.63277C50.8696 3.90086 50.4477 4.41066 49.763 4.3419C49.6407 4.33009 49.4913 4.55582 49.3606 4.67875C49.1611 4.86767 48.9895 5.09409 48.7671 5.24967C46.6402 6.73184 46.1356 7.1944 44.4522 9.2961C44.1117 9.72117 43.7767 10.1539 43.4778 10.6081C42.5172 12.0687 41.9689 13.728 41.2537 15.3067C41.1605 15.5116 41.0431 15.8082 41.1237 15.97C41.3711 16.4722 41.0368 16.8688 40.9833 17.3112C40.9075 17.9425 40.5266 18.5433 40.7866 19.2094C40.528 19.9477 40.9492 20.6554 40.8922 21.3757C40.829 22.1716 41.0493 22.921 41.1668 23.6864C41.2293 24.0934 41.4566 24.4796 41.4969 24.8859C41.6234 26.1639 42.1238 27.2522 42.9051 28.2677C43.2832 28.7587 43.6891 29.2893 43.9094 29.8596C44.2548 30.7541 44.8011 31.4348 45.4969 32.0641C46.4463 32.9225 47.2595 33.9359 48.4126 34.5561C48.7365 34.7304 49.0722 34.8867 49.3773 35.0895C50.7299 35.9903 52.2096 36.5953 53.7575 37.0738C54.3024 37.2419 54.8375 37.1884 55.3672 37.2614C55.9434 37.3405 56.4855 37.6309 57.1013 37.6684C57.6024 37.6989 58.0799 37.7913 58.6012 37.7121C60.1824 37.4732 61.8165 37.6753 63.3636 37.0592C63.7313 36.9134 64.1428 36.8523 64.5125 36.6502C64.8302 36.4765 65.1937 36.3862 65.5377 36.2612C65.7518 36.1841 65.9839 36.1417 66.1792 36.0334C67.39 35.3597 68.5966 34.6763 69.6558 33.7713C70.3891 33.1441 71.2197 32.585 71.8 31.8362C72.4353 31.016 73.1943 30.2575 73.5787 29.2456C73.6857 28.9629 73.9929 28.7608 74.1826 28.5031C74.3446 28.2829 74.5364 28.0517 74.5962 27.7975C74.6907 27.3995 74.6011 26.9466 74.7442 26.5764C74.886 26.2083 75.2315 25.9361 75.3024 25.4964C75.3955 24.9234 75.8042 24.4275 75.6888 23.7871C75.6527 23.5871 75.8438 23.3558 75.8799 23.1301C76.0252 22.2327 76.3046 21.3201 76.2386 20.4353C76.1705 19.5261 75.9265 18.6301 76.0801 17.796ZM58.4517 0.0864072C59.659 -0.0531968 60.7996 -0.0608368 61.9123 0.347557C62.0798 0.408677 62.2751 0.405899 62.4586 0.410066C63.0988 0.425346 63.6743 0.560783 64.2713 0.869162C64.8517 1.16921 65.5856 1.18101 66.2007 1.46925C66.9521 1.82069 67.6492 2.32285 68.4304 2.56247C68.9913 2.73402 69.3965 3.06115 69.8664 3.33689C70.1451 3.50011 70.1646 3.80501 70.3717 3.95573C70.8123 4.27731 71.3496 4.48567 71.7395 4.85378C72.1329 5.22675 72.3783 5.75113 72.7223 6.18245C72.9489 6.46721 73.2297 6.70892 73.4931 6.96312C74.2889 7.73337 74.8165 8.72658 75.606 9.50169C75.702 9.59615 75.8354 9.73367 75.8257 9.83994C75.7687 10.4949 76.2865 10.9373 76.4116 11.5138C76.4936 11.8882 76.7049 12.1639 76.8828 12.4813C77.2338 13.1099 77.5077 13.8065 77.6738 14.5073C77.9038 15.481 78.063 16.4666 78.3494 17.4341C78.5224 18.0189 78.405 18.6947 78.3897 19.3288C78.38 19.7442 78.284 20.1581 78.2889 20.5721C78.3063 22.1473 77.9873 23.6586 77.6293 25.1894C77.2338 26.8807 76.4804 28.3767 75.629 29.8464C74.9173 31.075 74.1937 32.2988 73.1511 33.2955C72.657 33.7685 72.2149 34.2956 71.7194 34.7672C71.2606 35.2041 70.7929 35.6445 70.2737 36.0035C69.5703 36.4897 68.8447 36.9634 68.0739 37.3273C66.8256 37.9184 65.5342 38.4212 64.2553 38.9463C64.0482 39.0311 63.807 39.0304 63.5867 39.0873C63.096 39.213 62.5622 39.2658 62.1306 39.5013C61.4307 39.8833 60.7064 39.843 59.9718 39.8312C59.2003 39.8194 58.4197 39.5554 57.6642 39.9729C57.537 40.043 57.3084 39.9604 57.136 39.9138C56.3026 39.6881 55.4436 39.6173 54.5984 39.47C53.7817 39.3269 53.0054 38.9588 52.1887 38.8158C51.6625 38.7234 51.274 38.3893 50.7986 38.2546C49.4843 37.883 48.4021 37.0995 47.2796 36.3793C46.1564 35.6583 45.1896 34.7617 44.2326 33.8372C43.7092 33.3323 43.2018 32.835 42.7709 32.2481C42.3386 31.6584 41.8117 31.1355 41.4079 30.5284C41.0812 30.0381 40.8317 29.4831 40.6253 28.9282C40.1944 27.7676 39.8336 26.5806 39.4083 25.4172C38.8161 23.7983 38.6208 22.8064 38.6402 21.159C38.6402 21.1138 38.6764 21.0541 38.6576 21.0263C38.21 20.3602 38.5833 19.7213 38.6931 19.0628C38.7758 18.5662 38.7445 18.0509 38.7619 17.5439C38.7904 16.7208 38.7417 15.8922 39.2255 15.1449C39.3652 14.9296 39.3276 14.6059 39.3958 14.3385C39.6112 13.5009 39.8378 12.666 40.0602 11.8298C41.0096 10.8616 41.1389 9.37389 42.1877 8.4682C42.4477 7.63127 43.2463 7.23399 43.737 6.58112C44.2332 5.92199 44.8296 5.34344 45.485 4.83503C45.8117 4.58152 46.1404 4.3294 46.4817 4.09672C46.6715 3.96684 46.9182 3.91128 47.0892 3.76334C48.8504 2.23742 51.0454 1.6026 53.1659 0.828878C53.6316 0.658714 54.0959 0.453823 54.5664 0.329499C55.3935 0.111411 56.2484 -0.0400004 57.12 0.0218143C57.5815 0.0544581 58.0437 0.0669599 58.4517 0.0864072Z" fill="#FCFCFC"></path>
<path fill-rule="evenodd" clip-rule="evenodd" d="M52.1044 22.9302H53.8027C54.1038 25.2778 55.5687 26.8984 58.7996 26.8984C61.7322 26.8984 63.2324 25.5765 63.2324 23.4928C63.2324 21.2772 61.9329 20.5827 58.6668 19.9877C54.4022 19.2285 52.6688 18.1356 52.6688 15.1608C52.6688 12.2182 55.4683 10.533 58.4009 10.533C61.5314 10.533 63.9974 11.8225 64.464 15.2281H62.7658C62.3317 13.0124 60.8994 12.019 58.3683 12.019C55.9349 12.019 54.3018 13.2439 54.3018 15.0934C54.3018 17.0775 55.5009 17.8071 59.0655 18.4343C62.7983 19.0966 64.9306 19.9877 64.9306 23.3609C64.9306 26.2712 62.7658 28.3872 58.7996 28.3872C54.7034 28.3872 52.3378 26.2361 52.1044 22.9302Z" fill="#FCFCFC"></path>
<path fill-rule="evenodd" clip-rule="evenodd" d="M5.75077 3.92569C5.59921 3.92569 5.44688 3.93872 5.29763 3.92339C4.75325 3.86591 4.20886 3.7724 3.66911 3.95558C3.68149 4.51125 3.66525 5.06921 3.71551 5.62181C3.75185 6.02343 3.88099 6.41661 3.95986 6.81592C4.04647 7.25509 3.7302 7.65824 3.92971 8.14569C4.15086 8.68296 4.18025 9.28768 3.97224 9.8809C3.89336 10.1055 3.94285 10.3745 3.9328 10.6236C3.88022 11.8851 3.84851 13.1475 3.76655 14.4067C3.72711 15.0053 3.52683 15.5495 3.96992 16.1488C4.34418 16.6562 3.48198 17.4127 4.12535 18.0021C4.15086 18.0251 4.08591 18.1952 4.0225 18.2527C3.707 18.5401 3.68535 18.9072 3.83537 19.2406C4.03874 19.6951 3.96373 20.1059 3.89568 20.5727C3.80366 21.2111 3.8547 21.8779 3.90651 22.5271C4.01245 23.8431 4.00549 25.1529 3.88331 26.4674C3.84155 26.915 4.01941 27.4216 3.86243 27.8086C3.66679 28.2915 3.67607 28.6487 3.90574 29.0932C4.02946 29.3338 3.77428 29.6787 4.05884 29.9462C4.22974 30.1072 4.19494 30.3501 3.99389 30.4689C3.56317 30.7242 3.53379 31.0974 3.57941 31.5297C3.69772 32.6387 3.86011 33.7478 3.6405 34.8645C3.62194 34.9557 3.68767 35.0614 3.70314 35.1626C3.74567 35.4447 3.87712 35.6554 4.19185 35.6309C5.26284 35.5474 6.32841 35.4937 7.3909 35.739C7.55483 35.7765 7.7613 35.6524 7.94224 35.588C8.08221 35.5389 8.25542 35.3787 8.3428 35.4194C9.08283 35.7635 9.85765 35.4868 10.6124 35.5573C12.1427 35.7006 13.6885 35.6708 15.2281 35.7121C15.8591 35.3956 16.5364 35.529 17.1759 35.5995C17.841 35.6723 18.4805 35.4485 19.1548 35.5864C19.5754 35.6723 20.0564 35.4148 20.508 35.4224C21.006 35.4316 21.5009 35.5834 22.0004 35.6424C22.1984 35.6654 22.4064 35.6025 22.6098 35.5826C22.8023 35.5642 22.998 35.5213 23.1866 35.5428C23.898 35.6225 24.6087 35.8056 25.3178 35.7934C26.0021 35.7819 26.6571 35.4761 27.3878 35.6202C27.6809 35.6777 28.0428 35.2814 28.3776 35.2753C28.704 35.2691 29.0256 35.5374 29.3659 35.6087C29.6621 35.6715 29.9814 35.6355 30.29 35.6286C30.7013 35.6194 31.1251 35.5251 31.5218 35.5933C32.5062 35.7612 33.4627 35.578 34.4355 35.519C35.3975 35.46 36.3726 35.611 37.3415 35.6677C37.3917 35.67 37.4435 35.6531 37.4946 35.6478C37.9106 35.6048 38.0281 35.4738 38.0776 35.0936C38.1727 34.367 37.9701 33.6796 37.8062 32.9913C37.7335 32.6855 37.6353 32.4165 37.8356 32.1183C37.899 32.024 37.8774 31.8447 37.8418 31.7198C37.6531 31.0622 37.5619 30.4145 37.7706 29.7332C37.8565 29.4511 37.7884 29.1246 37.8 28.8188C37.8456 27.548 37.8696 26.275 37.9555 25.0065C37.9926 24.4639 38.3235 23.9044 37.6964 23.4836C37.5657 22.8046 38.0606 22.1002 37.6191 21.4257C37.599 21.3951 37.7552 21.2763 37.7846 21.1843C37.8596 20.9513 38.0397 20.6172 37.9462 20.4876C37.5224 19.9005 37.7977 19.3234 37.848 18.7348C37.8913 18.232 37.9469 17.7131 37.8727 17.2203C37.6686 15.8599 37.7745 14.5087 37.8108 13.1475C37.8379 12.1542 38.1263 11.1509 37.824 10.1553C37.7521 9.91769 37.6446 9.68853 37.6028 9.44633C37.582 9.32447 37.6284 9.12366 37.7181 9.06005C38.3599 8.60555 38.1983 7.92342 38.0869 7.37619C37.9415 6.66723 38.0026 5.98357 38.0173 5.28688C38.0227 5.03472 38.056 4.7818 38.0459 4.52964C38.032 4.16482 37.8155 3.95558 37.4652 3.95788C37.1574 3.96018 36.8497 3.97321 36.5434 4.0031C35.457 4.10733 34.3404 3.45356 33.2725 4.13033C33.2184 4.16482 33.0846 4.04985 32.9856 4.04525C31.8628 3.98547 30.7392 3.90116 29.6157 3.88966C28.2934 3.87587 26.9788 3.84828 25.6487 4.04525C24.8268 4.16635 23.939 3.88966 23.0776 4.115C22.9693 4.14336 22.8077 3.92492 22.6801 3.93565C22.2224 3.97397 21.7499 4.0054 21.3168 4.14412C20.7562 4.3227 20.4168 3.65437 19.8639 3.85364C19.6899 3.91572 19.4517 3.79233 19.2684 3.84368C19.0867 3.89426 18.9444 4.13186 18.7712 4.14872C18.6088 4.16482 18.4372 3.96937 18.2547 3.91879C18.0119 3.85211 17.7559 3.81149 17.5038 3.80152C16.9904 3.78006 16.4645 3.72105 15.9642 3.80229C15.5196 3.87434 15.1198 3.97627 14.6388 3.92339C14.1687 3.87204 13.6614 4.15025 13.1704 4.28361C12.6894 3.8774 12.1079 3.987 11.5488 3.96248C10.8846 3.93335 10.2211 3.87357 9.55607 3.84138C9.24831 3.82682 8.92276 3.78696 8.63355 3.86437C7.67546 4.11883 6.71196 3.94791 5.75077 3.92569ZM37.261 37.9992C36.6609 37.8835 36.0949 37.8383 35.467 37.9356C34.686 38.0559 33.8547 37.8444 33.0443 37.7838C32.7876 37.7647 32.5254 37.7394 32.2718 37.7677C31.5117 37.8543 30.75 37.9425 29.9968 38.0758C29.2955 38.1992 28.5802 37.8428 27.8796 38.1977C27.5556 38.3625 27.4002 37.8566 26.9578 37.9049C25.7616 38.0368 24.5359 37.5692 23.3381 38.0276C22.2092 37.4152 21.0315 38.1809 19.8576 37.898C19.2019 37.7402 18.424 37.7616 17.7303 38.046C17.1542 38.282 16.5557 38.0621 15.968 38.0912C15.1561 38.1318 14.331 38.0115 13.5183 37.9088C12.5733 37.7892 11.6299 38.1303 10.6896 37.8865C9.38357 38.2912 8.05431 37.7064 6.72814 37.9892C6.21468 38.0988 5.59606 37.6099 5.08956 37.9057C4.57843 38.2038 3.96135 37.7447 3.5345 38.236C2.82696 38.1326 2.10549 38.0835 1.41495 37.9118C0.710495 37.7363 0.667965 37.5493 0.932426 36.8518C1.0894 36.438 1.36933 36.0563 0.964904 35.5773C0.834993 35.4232 0.947118 34.9871 1.06002 34.7273C1.37629 34.0007 1.47759 33.3362 1.18761 32.5314C0.985009 31.9689 1.15049 31.2676 1.19302 30.6314C1.21699 30.2766 1.25334 29.9508 1.1443 29.5853C0.985009 29.0549 1.00821 28.4946 1.14972 27.9336C1.23323 27.6063 1.14276 27.2392 1.15822 26.8912C1.17987 26.3992 1.26726 25.9064 1.25179 25.4158C1.23555 24.9223 1.04223 24.4586 1.34768 23.9504C1.62683 23.4859 1.46831 22.9372 1.23091 22.4773C1.06156 22.1493 1.12188 21.9676 1.3268 21.6779C1.47063 21.4748 1.39485 21.1108 1.39639 20.818C1.40103 19.7795 1.6941 18.7118 1.27963 17.7162C1.07471 17.2249 1.13966 16.8831 1.3237 16.4255C1.64848 15.6177 1.5928 14.2259 1.44434 12.9896C1.31288 11.8982 1.19302 10.7907 1.58353 9.71154C1.63534 9.56898 1.72581 9.3812 1.67477 9.27084C1.31906 8.49597 1.89361 7.71267 1.61136 6.91558C1.49537 6.58984 1.88742 6.0495 1.73586 5.78048C1.49383 5.35281 1.76061 5.1497 1.86964 4.85846C2.0676 4.32885 2.26633 3.79388 2.13565 3.21981C2.06992 2.92934 2.15652 2.7086 2.36067 2.54152C2.82773 2.1583 3.23602 1.68771 3.89099 1.57811C4.07271 1.54745 4.19798 1.43402 4.43151 1.52216C5.04703 1.75592 5.69117 1.67314 6.34537 1.66625C7.14184 1.65705 7.97234 1.50606 8.78738 1.79118C9.14386 1.91611 9.62252 1.84176 10.0037 1.72373C10.801 1.4754 11.6114 1.47464 12.4202 1.4984C13.3752 1.52675 14.3542 1.28456 15.2829 1.69767C16.2425 1.48307 17.2091 1.92684 18.1618 1.67391C18.424 1.60493 18.6327 1.58194 18.8941 1.68541C19.1191 1.77355 19.4114 1.818 19.6388 1.75669C20.5543 1.50836 21.4776 1.62486 22.3963 1.64479C23.0659 1.66012 23.7255 1.65705 24.3759 1.47924C24.5104 1.44321 24.6535 1.42175 24.7919 1.42482C25.535 1.44015 26.2797 1.44398 27.0205 1.49456C27.7342 1.54285 28.4433 1.67391 29.157 1.7084C29.553 1.7268 29.969 1.53365 30.3525 1.59037C31.139 1.7084 31.8944 1.42942 32.6461 1.47464C33.407 1.52062 34.1478 1.65322 34.9296 1.59267C35.5111 1.54822 36.1421 1.88085 36.705 1.56201C37.2262 1.26693 37.7613 1.58347 38.3157 1.38343C38.782 1.21481 39.4177 1.44781 39.9621 1.57121C40.3015 1.64785 40.6982 1.77508 40.9124 2.01651C41.1939 2.33535 40.7624 2.65418 40.6982 2.98605C40.6518 3.22595 40.542 3.54632 40.6495 3.70344C41.0168 4.24071 40.74 4.69904 40.5474 5.1543C40.2961 5.75059 40.3054 6.31086 40.4778 6.93474C40.6626 7.60384 40.501 8.31586 40.525 9.00872C40.532 9.21106 40.3966 9.45861 40.4747 9.61114C40.9317 10.5094 40.6201 11.3762 40.4276 12.2515C40.9573 13.0394 40.2265 13.8886 40.549 14.7026C40.6263 14.8988 40.4539 15.1847 40.4206 15.433C40.3734 15.7825 40.3611 16.1366 40.3116 16.4861C40.242 16.982 41.0593 17.4303 40.3897 17.9546C40.3796 18.4474 40.4825 18.9762 40.3363 19.4254C40.0502 20.3029 40.2428 21.1292 40.4531 21.9508C40.5459 22.3118 40.6302 22.603 40.4616 22.9632C40.1755 23.5718 40.2304 24.2355 40.1701 24.8885C40.1082 25.5561 40.0796 26.1823 40.2451 26.8284C40.5003 27.8278 40.4647 28.8181 40.143 29.806C40.0525 30.085 39.9651 30.4506 40.0726 30.6897C40.3448 31.2982 39.8059 31.8723 40.1012 32.477C40.3541 32.9959 39.7973 33.5393 40.0634 34.1164C40.1391 34.282 39.9257 34.5694 39.8646 34.807C39.7656 35.1971 39.5685 35.6064 39.6156 35.9827C39.7192 36.8043 39.253 37.1845 38.6591 37.5662C38.2199 37.8475 37.7876 38.0567 37.261 37.9992Z" fill="#FCFCFC"></path>
<path fill-rule="evenodd" clip-rule="evenodd" d="M18.0992 15.3271H11.8371V11.1988H29.6512V15.3271H23.3891V28.3389H18.0992V15.3271Z" fill="#FCFCFC"></path>
</svg>