<svg width="318" height="44" viewBox="0 0 318 44" fill="none" xmlns="http://www.w3.org/2000/svg">
<path fill-rule="evenodd" clip-rule="evenodd" d="M51.6245 28.3235V27.9407C51.6245 22.4753 49.0813 19.195 44.7075 19.195C40.3823 19.195 37.7907 22.3683 37.7907 27.834V28.2701C37.7907 33.7355 40.2766 37.0158 44.7075 37.0158C49.0813 37.0158 51.6245 33.7355 51.6245 28.3235ZM29.7881 28.4353V27.9991C29.7881 19.0353 36.2167 13.187 44.7044 13.187C53.1878 13.187 59.5634 18.9241 59.5634 27.8346V28.2706C59.5634 37.2923 53.135 43.0294 44.6472 43.0294C36.2167 43.0294 29.7881 37.3458 29.7881 28.4353Z" fill="#FCFCFC"></path>
<path fill-rule="evenodd" clip-rule="evenodd" d="M63.1246 13.8246H70.8636V18.268C72.2497 15.486 75.2915 13.1836 79.9366 13.1836C85.4334 13.1836 89.3269 16.502 89.3269 23.9977V41.8322H81.5878V25.1228C81.5878 21.3204 80.0931 19.502 76.6776 19.502C73.3708 19.502 70.8636 21.534 70.8636 25.659V41.8322H63.1246V13.8246Z" fill="#FCFCFC"></path>
<mask id="mask0_1_95" style="mask-type:luminance" maskUnits="userSpaceOnUse" x="0" y="0" width="318" height="44">
<path fill-rule="evenodd" clip-rule="evenodd" d="M0 43.0269H318V0.0539551H0V43.0269Z" fill="white"></path>
</mask>
<g mask="url(#mask0_1_95)">
<path fill-rule="evenodd" clip-rule="evenodd" d="M93.5415 41.833H101.861V13.6085H93.5415V41.833ZM92.9086 5.51296C92.9086 3.08291 94.9872 1.24609 97.6444 1.24609C100.358 1.24609 102.437 3.08291 102.437 5.51296C102.437 7.93863 100.358 9.77545 97.6444 9.77545C94.9872 9.77545 92.9086 7.93863 92.9086 5.51296Z" fill="#FCFCFC"></path>
<path fill-rule="evenodd" clip-rule="evenodd" d="M106.004 28.4853V28.0491C106.004 18.8094 112.668 13.1836 120.875 13.1836C127.539 13.1836 133.705 16.0766 134.422 24.2794H126.879C126.328 20.9413 124.287 19.4147 121.041 19.4147C116.91 19.4147 114.157 22.4724 114.157 27.9379V28.3785C114.157 34.1156 116.744 37.0664 121.206 37.0664C124.399 37.0664 126.987 35.2104 127.373 31.5475H134.588C134.149 38.326 129.189 43.0259 120.821 43.0259C112.394 43.0259 106.004 37.8319 106.004 28.4853Z" fill="#FCFCFC"></path>
<path fill-rule="evenodd" clip-rule="evenodd" d="M170.323 38.2247C170.323 35.6041 172.399 33.4766 175.061 33.4766C177.775 33.4766 179.851 35.6041 179.851 38.2247C179.851 40.8986 177.775 43.0261 175.061 43.0261C172.399 43.0261 170.323 40.8986 170.323 38.2247Z" fill="#FCFCFC"></path>
<path fill-rule="evenodd" clip-rule="evenodd" d="M183.414 33.9049H186.252C186.756 37.8287 189.204 40.5376 194.604 40.5376C199.506 40.5376 202.013 38.3281 202.013 34.8453C202.013 31.1421 199.841 29.9811 194.382 28.9867C187.254 27.7177 184.357 25.8909 184.357 20.9187C184.357 16.0005 189.036 13.1836 193.938 13.1836C199.17 13.1836 203.292 15.339 204.072 21.0312H201.234C200.508 17.3279 198.114 15.6675 193.883 15.6675C189.816 15.6675 187.087 17.7149 187.087 20.8061C187.087 24.1224 189.091 25.3419 195.049 26.3903C201.288 27.4972 204.852 28.9867 204.852 34.6248C204.852 39.4891 201.234 43.0259 194.604 43.0259C187.758 43.0259 183.804 39.4305 183.414 33.9049Z" fill="#FCFCFC"></path>
<path fill-rule="evenodd" clip-rule="evenodd" d="M212.455 35.6917V16.2699H208.437V13.7855H212.455V7.21729H215.22V13.7855H222.364V16.2699H215.22V35.467C215.22 38.9444 216.783 40.5437 219.289 40.5437C220.694 40.5437 221.79 40.2696 222.729 39.9371V42.4216C221.841 42.754 220.8 43.0281 219.131 43.0281C214.799 43.0281 212.455 40.3235 212.455 35.6917Z" fill="#FCFCFC"></path>
<path fill-rule="evenodd" clip-rule="evenodd" d="M227.487 31.0423V13.1836H230.343V30.8797C230.343 36.8678 233.143 39.35 238.047 39.35C242.628 39.35 247.261 36.2747 247.261 30.3395V13.1836H250.117V41.4017H247.261V36.0067C245.966 39.0819 242.356 41.8322 237.398 41.8322C231.581 41.8322 227.487 38.8097 227.487 31.0423Z" fill="#FCFCFC"></path>
<path fill-rule="evenodd" clip-rule="evenodd" d="M277.102 28.3884V27.9493C277.102 20.0277 272.909 15.8429 267.043 15.8429C261.015 15.8429 256.66 20.301 256.66 28.0613V28.5004C256.66 36.3682 261.015 40.5531 266.614 40.5531C272.313 40.5531 277.102 36.3145 277.102 28.3884ZM253.698 28.6118V28.1682C253.698 19.3102 259.35 13.3689 266.771 13.3689C272.313 13.3689 275.436 16.6129 277.049 20.1928V0.0527344H279.901V42.5866H277.049V35.9285C275.542 39.3965 271.616 43.0257 266.342 43.0257C259.188 43.0257 253.698 37.7431 253.698 28.6118Z" fill="#FCFCFC"></path>
<path fill-rule="evenodd" clip-rule="evenodd" d="M284.048 41.8294H286.573V13.6933H284.048V41.8294ZM283.475 5.62645C283.475 4.54883 284.285 3.6333 285.286 3.6333C286.287 3.6333 287.048 4.54883 287.048 5.62645C287.048 6.75663 286.287 7.6677 285.286 7.6677C284.285 7.6677 283.475 6.75663 283.475 5.62645Z" fill="#FCFCFC"></path>
<path fill-rule="evenodd" clip-rule="evenodd" d="M315.023 28.3572V27.9108C315.023 20.2732 310.355 15.6746 304.335 15.6746C298.261 15.6746 293.597 20.3814 293.597 27.9108V28.3572C293.597 35.7738 298.151 40.5394 304.335 40.5394C310.412 40.5394 315.023 35.8325 315.023 28.3572ZM290.611 28.3584V27.9121C290.611 19.2195 296.742 13.187 304.334 13.187C311.984 13.187 318.005 19.0527 318.005 27.858V28.2998C318.005 37.051 311.931 43.0294 304.282 43.0294C296.579 43.0294 290.611 36.8842 290.611 28.3584Z" fill="#FCFCFC"></path>
<path fill-rule="evenodd" clip-rule="evenodd" d="M10.4668 20.0838H0V13.1836H29.7753V20.0838H19.3085V41.8322H10.4668V20.0838Z" fill="#FCFCFC"></path>
<path fill-rule="evenodd" clip-rule="evenodd" d="M36.9193 9.60314H53.5934V4.82837H36.9193V9.60314Z" fill="#FCFCFC"></path>
<path fill-rule="evenodd" clip-rule="evenodd" d="M158.806 28.3235V27.9407C158.806 22.4753 156.263 19.195 151.889 19.195C147.564 19.195 144.972 22.3683 144.972 27.834V28.2701C144.972 33.7355 147.458 37.0158 151.889 37.0158C156.263 37.0158 158.806 33.7355 158.806 28.3235ZM136.97 28.4353V27.9991C136.97 19.0353 143.398 13.187 151.886 13.187C160.369 13.187 166.745 18.9241 166.745 27.8346V28.2706C166.745 37.2923 160.316 43.0294 151.829 43.0294C143.398 43.0294 136.97 37.3458 136.97 28.4353Z" fill="#FCFCFC"></path>
</g>
</svg>