<svg xmlns="http://www.w3.org/2000/svg" xmlns:xlink="http://www.w3.org/1999/xlink" width="1241" zoomAndPan="magnify" viewBox="0 0 930.75 930.749989" height="1241" preserveAspectRatio="xMidYMid meet" version="1.0"><defs><g></g><clipPath id="86aa83e3b6"><rect x="0" width="747" y="0" height="341"></rect></clipPath></defs><g transform="matrix(1, 0, 0, 1, 92, 274)"><g clip-path="url(#86aa83e3b6)"><g fill="#ffffff" fill-opacity="1"><g transform="translate(1.050007, 146.442866)"><g><path d="M 55.707031 1.472656 C 79.140625 1.472656 92.40625 -15.769531 97.414062 -31.242188 C 98.59375 -34.929688 94.613281 -35.222656 93.730469 -32.570312 C 88.867188 -18.421875 78.109375 -2.210938 57.476562 -2.210938 C 32.71875 -2.210938 11.199219 -24.316406 11.199219 -54.675781 C 11.199219 -82.675781 31.097656 -102.867188 53.496094 -102.867188 C 86.507812 -102.867188 85.183594 -76.339844 91.519531 -76.339844 C 93.140625 -76.339844 94.171875 -77.371094 94.171875 -79.140625 C 94.171875 -86.804688 78.992188 -106.109375 55.5625 -106.109375 C 28 -106.109375 6.777344 -84.742188 6.777344 -53.203125 C 6.777344 -21.957031 31.097656 1.472656 55.707031 1.472656 Z M 55.707031 1.472656 "></path></g></g></g><g fill="#ffffff" fill-opacity="1"><g transform="translate(102.591657, 146.442866)"><g><path d="M 80.023438 -6.335938 L 50.695312 -42.445312 C 70.152344 -45.832031 81.792969 -57.035156 81.644531 -72.949219 C 81.5 -95.203125 61.160156 -104.636719 37.136719 -104.636719 L 13.265625 -104.636719 C 11.644531 -104.636719 10.757812 -104.34375 10.757812 -103.605469 L 10.757812 -103.308594 C 10.757812 -101.6875 15.621094 -102.425781 15.621094 -98.300781 L 15.621094 -6.335938 C 15.621094 -2.210938 10.757812 -2.949219 10.757812 -1.328125 L 10.757812 -1.03125 C 10.757812 -0.292969 11.644531 0 13.265625 0 L 22.546875 0 C 24.167969 0 25.203125 -0.292969 25.203125 -1.03125 L 25.203125 -1.328125 C 25.203125 -2.949219 20.042969 -2.210938 20.042969 -6.335938 L 20.042969 -41.414062 L 38.023438 -41.414062 C 40.96875 -41.414062 43.769531 -41.558594 46.421875 -41.855469 L 75.015625 -6.335938 C 78.257812 -2.359375 72.65625 -2.949219 72.65625 -1.328125 L 72.65625 -1.03125 C 72.65625 -0.292969 73.539062 0 75.160156 0 L 85.183594 0 C 86.804688 0 87.835938 -0.292969 87.835938 -1.03125 L 87.835938 -1.328125 C 87.835938 -2.949219 83.265625 -2.359375 80.023438 -6.335938 Z M 24.167969 -44.65625 C 21.515625 -44.65625 20.042969 -46.128906 20.042969 -48.632812 L 20.042969 -98.152344 C 20.042969 -100.363281 20.632812 -101.394531 22.695312 -101.394531 L 37.285156 -101.394531 C 58.804688 -101.394531 77.226562 -93.140625 77.226562 -71.476562 C 77.226562 -55.5625 61.75 -44.65625 38.171875 -44.65625 Z M 24.167969 -44.65625 "></path></g></g></g><g fill="#ffffff" fill-opacity="1"><g transform="translate(192.785402, 146.442866)"><g><path d="M 13.117188 0 L 76.488281 0 C 78.257812 0 78.992188 -1.03125 79.433594 -2.503906 L 82.972656 -14.441406 C 83.414062 -15.917969 82.824219 -16.359375 82.089844 -16.359375 L 81.644531 -16.359375 C 78.992188 -16.359375 77.226562 -3.242188 71.183594 -3.242188 L 22.992188 -3.242188 C 21.222656 -3.242188 19.75 -4.421875 19.75 -6.777344 L 19.894531 -52.316406 L 55.265625 -52.316406 C 59.246094 -52.316406 57.769531 -45.832031 59.980469 -45.832031 L 60.277344 -45.832031 C 61.011719 -45.832031 61.601562 -46.570312 61.601562 -47.75 L 61.601562 -60.277344 C 61.601562 -61.601562 61.011719 -62.046875 60.277344 -62.046875 L 59.980469 -62.046875 C 57.769531 -62.046875 59.246094 -55.5625 55.265625 -55.5625 L 19.894531 -55.5625 L 19.894531 -97.855469 C 19.894531 -99.921875 20.484375 -101.394531 22.402344 -101.394531 L 66.613281 -101.394531 C 72.65625 -101.394531 74.71875 -88.128906 76.929688 -88.128906 L 77.519531 -88.128906 C 78.257812 -88.128906 78.699219 -88.71875 78.257812 -90.339844 L 74.71875 -102.132812 C 74.277344 -103.605469 73.6875 -104.636719 71.773438 -104.636719 L 12.527344 -104.636719 C 11.347656 -104.636719 10.609375 -104.488281 10.609375 -103.753906 L 10.609375 -103.457031 C 10.609375 -101.835938 15.621094 -102.722656 15.621094 -97.855469 L 15.621094 -6.632812 C 15.621094 -1.914062 10.609375 -3.09375 10.609375 -1.328125 L 10.609375 -1.03125 C 10.609375 -0.292969 11.644531 0 13.117188 0 Z M 13.117188 0 "></path></g></g></g><g fill="#ffffff" fill-opacity="1"><g transform="translate(277.231509, 146.442866)"><g><path d="M 55.707031 1.472656 C 79.140625 1.472656 92.40625 -15.769531 97.414062 -31.242188 C 98.59375 -34.929688 94.613281 -35.222656 93.730469 -32.570312 C 88.867188 -18.421875 78.109375 -2.210938 57.476562 -2.210938 C 32.71875 -2.210938 11.199219 -24.316406 11.199219 -54.675781 C 11.199219 -82.675781 31.097656 -102.867188 53.496094 -102.867188 C 86.507812 -102.867188 85.183594 -76.339844 91.519531 -76.339844 C 93.140625 -76.339844 94.171875 -77.371094 94.171875 -79.140625 C 94.171875 -86.804688 78.992188 -106.109375 55.5625 -106.109375 C 28 -106.109375 6.777344 -84.742188 6.777344 -53.203125 C 6.777344 -21.957031 31.097656 1.472656 55.707031 1.472656 Z M 55.707031 1.472656 "></path></g></g></g><g fill="#ffffff" fill-opacity="1"><g transform="translate(378.773158, 146.442866)"><g><path d="M 10.757812 -1.03125 C 10.757812 -0.148438 11.644531 0.148438 13.265625 0.148438 L 22.546875 0.148438 C 24.167969 0.148438 25.054688 -0.148438 25.054688 -1.03125 L 25.054688 -1.179688 C 25.054688 -2.800781 20.042969 -2.0625 20.042969 -6.191406 L 20.042969 -98.300781 C 20.042969 -102.425781 25.054688 -101.6875 25.054688 -103.308594 L 25.054688 -103.605469 C 25.054688 -104.34375 24.167969 -104.636719 22.546875 -104.636719 L 13.265625 -104.636719 C 11.644531 -104.636719 10.757812 -104.34375 10.757812 -103.605469 L 10.757812 -103.308594 C 10.757812 -101.6875 15.621094 -102.425781 15.621094 -98.300781 L 15.621094 -6.191406 C 15.621094 -2.0625 10.757812 -2.800781 10.757812 -1.179688 Z M 10.757812 -1.03125 "></path></g></g></g><g fill="#ffffff" fill-opacity="1"><g transform="translate(414.438014, 146.442866)"><g><path d="M 121.730469 -7.074219 L 105.078125 -95.941406 C 104.046875 -101.6875 109.5 -101.246094 109.5 -103.457031 L 109.5 -103.753906 C 109.5 -104.34375 108.910156 -104.636719 108.027344 -104.636719 L 104.046875 -104.636719 C 101.984375 -104.636719 100.953125 -103.753906 100.363281 -102.132812 L 64.699219 -5.453125 L 31.097656 -101.835938 C 30.359375 -103.753906 28.886719 -104.636719 26.824219 -104.636719 L 23.433594 -104.636719 C 22.402344 -104.636719 21.8125 -104.195312 21.8125 -103.457031 L 21.8125 -103.164062 C 21.8125 -100.953125 26.675781 -101.6875 25.9375 -97.710938 L 9.578125 -7.074219 C 8.695312 -2.359375 3.832031 -2.949219 3.832031 -1.328125 L 3.832031 -1.03125 C 3.832031 -0.292969 4.863281 0 6.484375 0 L 16.359375 0 C 17.980469 0 19.011719 -0.292969 19.011719 -1.03125 L 19.011719 -1.328125 C 19.011719 -2.949219 12.378906 -2.359375 13.265625 -7.074219 L 29.03125 -96.679688 L 61.75 -2.359375 C 62.488281 -0.738281 63.078125 0 64.402344 0 C 65.730469 0 66.464844 -0.882812 67.054688 -2.503906 L 101.542969 -95.351562 L 117.3125 -7.074219 C 118.195312 -2.210938 112.59375 -2.949219 112.59375 -1.328125 L 112.59375 -1.03125 C 112.59375 -0.292969 113.625 0 115.101562 0 L 124.972656 0 C 126.59375 0 127.628906 -0.292969 127.628906 -1.03125 L 127.628906 -1.328125 C 127.628906 -2.949219 122.617188 -2.210938 121.730469 -7.074219 Z M 121.730469 -7.074219 "></path></g></g></g><g fill="#ffffff" fill-opacity="1"><g transform="translate(543.538877, 146.442866)"><g><path d="M 59.097656 1.472656 C 87.394531 1.472656 108.320312 -24.757812 108.320312 -51.875 C 108.320312 -81.941406 86.507812 -106.109375 57.625 -106.109375 C 27.707031 -106.109375 6.632812 -82.53125 6.632812 -53.054688 C 6.632812 -25.203125 28.589844 1.472656 59.097656 1.472656 Z M 59.390625 -1.769531 C 31.242188 -1.769531 11.054688 -27.558594 11.054688 -53.644531 C 11.054688 -80.761719 30.066406 -102.867188 56.296875 -102.867188 C 84.296875 -102.867188 103.898438 -79.582031 103.898438 -50.992188 C 103.898438 -26.527344 85.332031 -1.769531 59.390625 -1.769531 Z M 59.390625 -1.769531 "></path></g></g></g><g fill="#ffffff" fill-opacity="1"><g transform="translate(658.491662, 146.442866)"><g><path d="M 45.097656 1.472656 C 65.289062 1.472656 80.171875 -9.433594 80.171875 -24.90625 C 80.171875 -71.625 13.707031 -39.054688 13.707031 -78.109375 C 13.707031 -92.847656 24.464844 -102.722656 43.179688 -102.722656 C 74.71875 -102.722656 70.59375 -80.910156 76.339844 -80.910156 C 77.960938 -80.910156 78.847656 -81.941406 78.847656 -83.5625 C 78.847656 -91.371094 68.234375 -105.964844 43.328125 -105.964844 C 21.957031 -105.964844 9.285156 -94.761719 9.285156 -78.550781 C 9.285156 -34.339844 75.75 -67.644531 75.75 -25.347656 C 75.75 -11.644531 63.222656 -1.769531 45.097656 -1.769531 C 11.644531 -1.769531 12.96875 -26.527344 7.8125 -26.675781 C 6.191406 -26.675781 5.453125 -25.644531 5.453125 -23.875 C 5.453125 -17.832031 16.359375 1.472656 45.097656 1.472656 Z M 45.097656 1.472656 "></path></g></g></g><g fill="#ffffff" fill-opacity="1"><g transform="translate(79.074614, 286.449637)"><g><path d="M 49.074219 -92.40625 L 49.074219 -31.097656 C 49.074219 -15.03125 43.179688 -6.042969 34.929688 -6.042969 C 15.917969 -6.042969 24.167969 -32.128906 9.578125 -32.128906 C 4.570312 -32.128906 1.328125 -28.589844 1.328125 -23.285156 C 1.328125 -13.851562 9.285156 1.621094 33.75 1.472656 C 53.351562 1.328125 66.761719 -9.578125 66.910156 -40.675781 L 67.054688 -92.40625 C 67.054688 -98.152344 72.949219 -98.890625 72.949219 -102.132812 L 72.949219 -102.574219 C 72.949219 -103.898438 71.773438 -104.636719 69.855469 -104.636719 L 46.71875 -104.636719 C 44.65625 -104.636719 43.476562 -103.898438 43.476562 -102.574219 L 43.476562 -102.132812 C 43.476562 -98.890625 49.074219 -98.152344 49.074219 -92.40625 Z M 49.074219 -92.40625 "></path></g></g></g><g fill="#ffffff" fill-opacity="1"><g transform="translate(157.920454, 286.449637)"><g><path d="M 54.382812 1.472656 C 77.960938 1.472656 94.320312 -14.148438 94.320312 -40.085938 L 94.320312 -92.40625 C 94.320312 -98.152344 100.511719 -98.890625 100.511719 -101.984375 L 100.511719 -102.574219 C 100.511719 -103.898438 99.183594 -104.636719 97.269531 -104.636719 L 82.382812 -104.636719 C 80.46875 -104.636719 79.140625 -103.898438 79.140625 -102.574219 L 79.140625 -101.984375 C 79.140625 -98.890625 84.886719 -98.152344 84.886719 -92.40625 L 84.886719 -40.234375 C 84.886719 -16.652344 71.328125 -6.484375 58.066406 -6.484375 C 40.675781 -6.484375 29.621094 -19.011719 29.621094 -40.234375 L 29.621094 -92.40625 C 29.621094 -98.152344 35.515625 -98.890625 35.515625 -101.984375 L 35.515625 -102.574219 C 35.515625 -103.898438 34.339844 -104.636719 32.421875 -104.636719 L 9.285156 -104.636719 C 7.367188 -104.636719 6.042969 -103.898438 6.042969 -102.574219 L 6.042969 -101.984375 C 6.042969 -98.890625 11.644531 -98.152344 11.644531 -92.40625 L 11.644531 -40.234375 C 11.644531 -14.148438 29.179688 1.472656 54.382812 1.472656 Z M 54.382812 1.472656 "></path></g></g></g><g fill="#ffffff" fill-opacity="1"><g transform="translate(264.030748, 286.449637)"><g><path d="M 100.953125 -104.636719 L 85.625 -104.636719 C 83.710938 -104.636719 82.382812 -103.753906 82.382812 -102.425781 L 82.382812 -101.984375 C 82.382812 -98.890625 88.574219 -98.152344 88.574219 -92.40625 L 88.574219 -21.957031 L 31.6875 -101.101562 C 30.066406 -103.457031 28.296875 -104.636719 25.496094 -104.636719 L 10.90625 -104.636719 C 8.84375 -104.636719 7.664062 -103.753906 7.664062 -102.425781 L 7.664062 -101.835938 C 7.664062 -98.59375 13.410156 -98.003906 13.410156 -92.257812 L 13.410156 -12.527344 C 13.410156 -6.632812 7.664062 -5.746094 7.664062 -2.503906 L 7.664062 -2.0625 C 7.664062 -0.738281 8.84375 0 10.90625 0 L 26.085938 0 C 28 0 29.328125 -0.738281 29.328125 -2.0625 L 29.328125 -2.503906 C 29.328125 -5.746094 22.84375 -6.632812 22.84375 -12.527344 L 22.84375 -85.183594 L 82.53125 -4.125 C 84.59375 -1.179688 86.066406 0 87.984375 0 L 93.289062 0 C 96.234375 0 98.003906 -1.769531 98.003906 -5.011719 L 98.003906 -92.40625 C 98.003906 -98.152344 104.195312 -98.890625 104.195312 -101.984375 L 104.195312 -102.425781 C 104.195312 -103.753906 102.867188 -104.636719 100.953125 -104.636719 Z M 100.953125 -104.636719 "></path></g></g></g><g fill="#ffffff" fill-opacity="1"><g transform="translate(375.004424, 286.449637)"><g><path d="M 33.75 0 L 56.738281 0 C 58.804688 0 59.980469 -0.738281 59.980469 -2.0625 L 59.980469 -2.503906 C 59.980469 -5.746094 54.085938 -6.484375 54.085938 -12.230469 L 54.085938 -96.679688 L 70.152344 -96.679688 C 78.402344 -96.679688 80.320312 -80.171875 85.476562 -80.171875 L 87.246094 -80.171875 C 89.015625 -80.171875 90.195312 -81.351562 89.75 -83.414062 L 86.507812 -100.953125 C 86.066406 -103.457031 84.886719 -104.636719 82.234375 -104.636719 L 8.253906 -104.636719 C 5.601562 -104.636719 4.421875 -103.457031 4.125 -100.953125 L 1.472656 -83.5625 C 1.179688 -81.351562 2.210938 -80.171875 3.980469 -80.171875 L 5.746094 -80.171875 C 10.90625 -80.171875 12.085938 -96.679688 20.335938 -96.679688 L 36.402344 -96.679688 L 36.402344 -12.230469 C 36.402344 -6.484375 30.652344 -5.746094 30.652344 -2.503906 L 30.652344 -2.0625 C 30.652344 -0.738281 31.832031 0 33.75 0 Z M 33.75 0 "></path></g></g></g><g fill="#ffffff" fill-opacity="1"><g transform="translate(463.724435, 286.449637)"><g><path d="M 57.476562 1.472656 C 86.066406 1.472656 108.027344 -21.664062 108.027344 -51.730469 C 108.027344 -80.761719 87.6875 -106.109375 56.738281 -106.109375 C 26.234375 -106.109375 5.15625 -83.414062 5.15625 -52.316406 C 5.15625 -23.582031 26.234375 1.472656 57.476562 1.472656 Z M 62.191406 -6.484375 C 38.464844 -6.484375 22.695312 -33.011719 22.695312 -65.582031 C 22.695312 -84.59375 33.75 -98.152344 50.550781 -98.152344 C 74.277344 -98.152344 90.488281 -71.476562 90.488281 -38.761719 C 90.488281 -21.222656 78.992188 -6.484375 62.191406 -6.484375 Z M 62.191406 -6.484375 "></path></g></g></g><g fill="#ffffff" fill-opacity="1"><g transform="translate(576.908749, 286.449637)"><g><path d="M 47.160156 1.472656 C 67.941406 1.472656 86.066406 -9.433594 86.066406 -28.148438 C 86.066406 -71.625 24.757812 -49.519531 24.757812 -81.351562 C 24.757812 -90.785156 31.390625 -98.890625 44.359375 -98.890625 C 69.117188 -98.890625 62.78125 -73.6875 76.636719 -73.6875 C 81.792969 -73.6875 84.296875 -76.636719 84.296875 -81.203125 C 84.445312 -92.40625 70.003906 -105.964844 44.800781 -105.964844 C 20.484375 -105.964844 6.777344 -92.992188 6.777344 -76.488281 C 6.777344 -32.273438 68.085938 -57.183594 68.085938 -23.285156 C 68.085938 -12.675781 59.835938 -5.601562 47.898438 -5.601562 C 20.335938 -5.601562 25.203125 -31.6875 11.789062 -32.128906 C 7.074219 -32.273438 4.570312 -28.886719 4.570312 -24.757812 C 4.570312 -14.296875 18.128906 1.472656 47.160156 1.472656 Z M 47.160156 1.472656 "></path></g></g></g></g></g></svg>